<?xml version="1.0" standalone="no"?>
<!DOCTYPE svg PUBLIC "-//W3C//DTD SVG 20010904//EN"
 "http://www.w3.org/TR/2001/REC-SVG-20010904/DTD/svg10.dtd">
<svg version="1.0" xmlns="http://www.w3.org/2000/svg"
 width="588.000000pt" height="588.000000pt" viewBox="0 0 588.000000 588.000000"
 preserveAspectRatio="xMidYMid meet">
<metadata>
Created by potrace 1.14, written by Peter Selinger 2001-2017
</metadata>
<g transform="translate(0.000000,588.000000) scale(0.100000,-0.100000)"
fill="#000000" stroke="none">
<path d="M2657 4603 c-1 -1 -70 -4 -152 -8 -83 -3 -161 -7 -175 -9 -14 -2 -52
-7 -85 -11 -86 -10 -109 -14 -176 -29 -33 -8 -62 -15 -64 -15 -3 -1 -6 -1 -7
-2 -2 0 -16 -3 -33 -5 -16 -2 -48 -8 -70 -14 -22 -5 -54 -11 -71 -14 -17 -3
-58 -18 -90 -32 -76 -34 -274 -104 -295 -104 -48 0 -378 -150 -578 -262 -193
-109 -445 -321 -562 -473 -113 -147 -206 -331 -257 -509 -40 -137 -40 -138
-40 -314 -1 -193 4 -234 45 -362 86 -275 256 -502 546 -730 90 -71 345 -202
507 -261 134 -49 440 -133 525 -144 19 -2 50 -6 67 -9 18 -3 76 -8 128 -11 52
-3 133 -10 180 -14 91 -9 622 -8 655 1 11 3 49 9 85 13 452 47 912 153 1361
313 242 86 279 101 279 112 0 10 122 55 139 52 8 -2 17 2 21 9 5 7 20 13 34
15 15 1 44 17 65 33 24 19 45 29 55 25 9 -3 16 -2 16 4 0 10 98 56 142 66 35
8 88 62 88 89 0 34 -27 179 -39 210 -6 15 -17 30 -24 33 -16 6 -96 -22 -117
-41 -15 -14 -41 -25 -340 -145 -154 -63 -399 -144 -465 -155 -22 -4 -49 -14
-60 -24 -21 -18 -208 -75 -280 -85 -91 -12 -121 -18 -130 -26 -13 -10 -59 -20
-115 -27 -25 -2 -59 -11 -75 -18 -17 -8 -53 -17 -80 -20 -28 -4 -79 -13 -115
-19 -36 -7 -77 -11 -93 -9 -15 2 -35 -1 -45 -6 -10 -5 -38 -12 -62 -16 -25 -3
-56 -8 -70 -10 -120 -18 -792 -37 -817 -22 -4 2 -40 7 -78 11 -39 4 -81 8 -95
10 -14 3 -47 7 -75 10 -102 11 -288 47 -363 70 -42 13 -99 29 -127 36 -69 18
-261 93 -337 131 -79 40 -257 151 -289 181 -68 63 -147 128 -154 128 -27 0
-198 229 -235 314 -10 25 -17 46 -14 46 2 0 -5 18 -16 40 -56 109 -57 301 -3
460 13 41 27 84 29 95 2 10 17 37 32 60 16 22 35 57 43 79 8 21 24 48 37 60
13 11 31 37 41 56 11 19 36 51 57 72 22 20 70 68 108 106 38 39 89 81 115 94
25 13 50 29 54 36 8 12 151 112 161 112 3 0 -8 -20 -25 -45 -74 -110 -167
-368 -225 -625 -47 -207 -73 -333 -80 -390 -2 -19 -8 -48 -12 -65 -10 -36 8
-87 80 -230 60 -118 100 -159 212 -215 70 -36 84 -39 130 -34 188 20 353 115
600 345 34 31 76 71 95 88 43 40 40 42 122 -114 108 -207 160 -279 238 -330
36 -24 45 -26 67 -16 14 6 48 11 75 11 37 0 60 6 82 22 83 59 166 142 239 241
112 150 169 261 339 660 66 155 136 314 155 352 l34 70 -14 65 c-26 120 -61
187 -136 258 -41 39 -115 92 -127 92 -12 0 -74 -112 -119 -214 -20 -45 -42
-94 -49 -111 -7 -16 -36 -88 -63 -160 -94 -248 -142 -357 -205 -470 -55 -97
-87 -136 -173 -206 l-74 -61 -17 39 c-28 64 -25 185 9 341 62 295 79 387 74
407 -10 39 -112 165 -157 194 -24 15 -55 38 -68 50 -13 11 -25 21 -27 21 -29
0 -244 -315 -382 -560 -104 -185 -174 -281 -283 -390 -68 -67 -201 -170 -221
-170 -8 0 -7 10 8 110 18 122 61 281 148 544 53 158 99 305 102 325 3 20 8 39
10 42 2 3 -16 21 -39 40 -23 19 -53 47 -67 64 -13 16 -42 47 -63 68 l-38 38
88 40 c48 23 93 42 98 43 6 1 29 12 52 24 63 33 234 96 283 105 14 3 63 19
110 36 85 32 234 78 279 87 13 3 38 11 55 18 17 7 54 16 81 20 59 7 92 13 160
26 28 6 70 12 95 15 25 3 56 7 70 10 14 2 45 7 70 10 25 3 65 10 90 15 25 5
59 11 75 14 48 7 120 25 151 37 16 7 47 13 69 14 22 1 42 3 45 4 36 15 663 14
780 -2 25 -3 86 -9 135 -12 50 -4 101 -9 115 -11 14 -2 52 -8 85 -14 33 -5 71
-12 85 -15 14 -3 39 -8 55 -11 17 -3 50 -10 75 -15 25 -6 59 -13 75 -16 45 -7
128 -31 240 -68 55 -19 120 -39 144 -45 25 -7 72 -25 105 -40 34 -16 84 -38
112 -48 27 -11 81 -37 120 -58 38 -21 78 -42 89 -48 82 -45 336 -236 396 -298
231 -239 335 -560 266 -813 -57 -205 -165 -372 -292 -452 -51 -32 -65 -50 -65
-85 0 -50 33 -33 141 75 123 122 198 237 240 365 39 116 48 170 47 284 0 262
-117 518 -338 739 -98 98 -232 205 -328 260 -111 64 -188 100 -203 96 -12 -3
-19 0 -19 9 0 8 -3 14 -7 15 -29 3 -49 10 -81 31 -77 50 -468 179 -647 214
-11 2 -58 13 -105 25 -85 21 -109 25 -185 34 -22 3 -58 8 -80 11 -22 3 -60 7
-85 9 -25 3 -58 8 -75 12 -16 3 -55 7 -85 8 -48 2 -123 8 -240 20 -100 10
-736 26 -743 18z"/>
<path d="M3624 3966 c-48 -21 -108 -80 -152 -149 -162 -255 -216 -358 -357
-682 -171 -392 -188 -440 -190 -533 -4 -145 42 -318 103 -391 24 -28 33 -32
80 -33 38 -1 60 4 79 18 44 33 97 148 102 220 1 6 17 29 36 50 25 27 35 47 35
71 0 40 22 85 61 127 16 17 29 40 30 51 2 70 60 221 113 297 11 15 16 10 39
-37 50 -101 138 -180 237 -209 169 -50 408 24 699 218 46 31 86 56 89 56 3 0
18 14 34 30 16 17 39 30 53 30 26 0 27 -10 6 -62 -12 -31 -47 -175 -56 -228
-3 -19 -10 -62 -16 -95 -33 -184 -7 -356 65 -442 35 -42 55 -41 142 2 38 19
74 35 79 35 12 0 78 148 125 279 41 112 61 208 64 311 1 47 8 95 15 108 6 12
9 22 6 22 -3 0 0 10 6 23 7 12 16 78 20 147 4 69 14 152 21 185 9 36 12 75 7
98 -6 37 -6 38 20 35 28 -3 28 -2 7 57 -8 22 -15 49 -16 61 0 11 -11 31 -25
44 -13 12 -29 37 -35 54 -6 18 -30 45 -55 64 -25 18 -45 39 -45 48 0 20 -116
74 -158 74 -50 0 -65 -12 -100 -82 -18 -35 -54 -86 -80 -114 -44 -47 -331
-302 -355 -315 -7 -4 -50 -30 -97 -57 -96 -57 -143 -69 -194 -52 -42 13 -56
49 -46 116 4 23 3 52 -2 65 -5 12 -6 37 -2 53 18 76 8 110 -65 224 -51 78 -51
79 -117 98 -58 16 -66 22 -71 47 -4 17 -19 37 -42 53 -41 27 -53 29 -97 10z"/>
</g>
</svg>
