<?xml version="1.0" encoding="UTF-8"?>
<svg id="Layer_1" data-name="Layer 1" xmlns="http://www.w3.org/2000/svg" viewBox="0 0 814.22 312.5">
  <defs>
    <style>
      .cls-1 {
        fill: #fff;
        font-family: PermanentMarker-Regular, 'Permanent Marker';
        font-size: 120px;
      }

      .cls-2 {
        letter-spacing: 0em;
      }

      .cls-3 {
        fill: #e15146;
        stroke-width: 0px;
      }
    </style>
  </defs>
  <g>
    <path class="cls-3" d="m.65,151.77c.85-2.09,1.67-4.2,2.56-6.28,2.64-6.19,5.3-12.37,7.99-18.79,6.6-8.62,12.88-17.22,19.82-25.31,3.93-4.58,8.93-8.31,13.6-12.59,24.63-19.25,52.2-33.09,81.81-44.19.69-.13.92-.28,1.15-.44,1.81-.73,3.62-1.45,5.86-2.18.64-.12.85-.25,1.05-.37.91-.34,1.82-.69,3.23-.97.88-.19,1.27-.44,1.74-.71.09-.03.23.09.46.07.88-.35,1.53-.69,2.4-1.14.53-.18.85-.25,1.26-.13.16.58.38,1.29.28,1.34-1.74.78-3.52,1.48-5.91,2.45,5.38,1.95,8.41-3.15,12.73-2.72q-.42,6.29,6.33,6.31c.23,0,.47.02.69,0,3.38-.38,4.67,1.34,4.58,4.3-.09,3.09-.31,6.17-.5,9.24-.03-.01-.06-.07-.34-.11-1.28.4-2.28.85-3.29,1.28-.02-.02.02,0-.23-.04-1.33-.12-1.69.2-3.07.91-.01,0-.03-.03-.28-.13l-1.34.42c0,1-2,1-3,1-.02,0,.49.05.21-.02-1.29.47-2.29,1.02-3.37,1.68-.21.24-.37.29-.87.22q.03.13-.97.13c-2,1-3,1-5.02,1.98-.01,0,.01.02-.27-.03-1.83.29-3.44.45-4.89,1.01-4.54,1.76-9.05,3.61-13.51,5.53-5.83,2.52-11.64,5.1-17.4,7.77-.7.32-1.03,1.37-1.64,2.18-.11.1-.4.15-.68.13-3.65,1.15-7.22,1.95-10.34,3.57-4.86,2.52-9.5,5.47-14.05,8.49-2.9,1.93-5.46,4.34-8.45,6.55-1.48.6-2.75,1.09-3.87,1.79-1.04.65-1.81,1.93-2.9,2.21-3.51.89-4.5,3.7-5.88,6.3-.07-.03.07.03-.15.02-.41.32-.61.65-.81,1,0,.03-.06.02-.3.03-.68.53-1.11,1.05-1.57,1.55-.03-.01.02-.05-.17-.02-.32.24-.45.45-.56.62.01-.03.05.03-.21,0-3.88,1.25-6.19,3.59-6.74,7.29-.05-.09.06.08-.2.06-.82.88-1.38,1.78-1.99,2.83-.05.16-.32.36-.52.41-.38.38-.57.71-.78,1.2-.27.37-.51.57-1.01.78-3.67,2.67-6.31,5.79-6.64,10.36,0,.12-.19.29-.43.33-.96.97-1.87,1.83-2.36,2.87-1.09,2.31-1.96,4.72-2.95,7.08-5.24,12.57-4.36,24.93,1.4,37.1.33.69,1.29,1.11,2.08,1.77.16.34.18.57.24,1.02.26.45.48.67.73.94.03.05-.05.13-.03.38,1.55,4.32,3.68,7.74,6.95,11.07,7.09,7.21,13.71,14.77,22.63,20.01.39.23.93.46,1.06.81,1.12,2.95,3.81,2.68,6.39,2.93.13.02.28.22.29.45,2.41,1.56,4.81,2.88,7.34,4.2.12,0,.3.17.34.4,1.9,1.12,3.76,2.03,5.59,2.91-.04-.01.04-.01.04.23,3.31,2.13,6.49,4.26,9.95,5.85,8.05,3.7,16.14,7.32,24.37,10.61,6.31,2.53,12.82,4.64,19.32,6.68,4.71,1.48,9.57,2.56,14.36,3.81,5.48,1.43,10.9,3.07,16.44,4.24,7.92,1.67,15.99,2.75,23.88,4.54,14.36,3.24,28.97,4.65,43.58,6.2,7.91.84,15.84,1.42,23.77,2.07,8.41.69,16.81,1.47,25.23,1.91,5.59.29,11.21.06,16.82.06,5.49,0,10.99.05,16.48-.02,13.96-.19,27.92-.26,41.87-.73,11.72-.39,23.43-1.15,35.12-1.97,5.55-.39,11.07-1.3,16.59-2.05.41-.06.74-.71,1.33-1.16.54-.06.85-.04,1.38.17,2.74.24,5.29.57,7.78.31,11.59-1.21,23.17-2.55,34.74-3.96.73-.09,1.34-1.11,2.04-1.69.03,0,.08.04.29.15.85-.12,1.49-.35,2.36-.71.56-.12.9-.11,1.37.07.32.31.52.58.68.55,6.33-.85,12.67-1.68,18.98-2.64.61-.09,1.1-.97,1.86-1.58.53-.09.85-.09,1.37.1,7.75-.67,15.33-1.29,22.83-2.45,7.74-1.2,15.44-2.78,23.08-4.5,3.04-.69,6.86,0,8.98-3.64.77-.17,1.31-.22,2-.1,1.44-.27,2.73-.71,4.22-1.27.54-.14.87-.15,1.4,0,2.01.03,3.85.09,5.61-.27,7.1-1.49,14.16-3.13,21.25-4.68,4.44-.98,8.93-1.78,13.34-2.87,6.53-1.62,13.01-3.43,19.51-5.15,4.95-1.31,9.91-2.55,14.84-3.91,5.5-1.52,10.96-3.2,16.47-4.72,4.46-1.23,8.99-2.25,13.45-3.51,2.4-.68,4.73-1.62,7.02-2.6.5-.21.7-1.05,1.07-1.6.03,0,.09,0,.38.11,3.58-.68,6.88-1.44,10.17-2.26,2.63-.65,5.09-.05,6.44,2.05,1.34,2.08,2.01,4.59,2.75,6.97.94,3.03,1.52,6.15,2.49,9.17.92,2.88,1.85,5.56-1.74,7.49-.69.37-.99,1.41-1.74,2.15-2.59,1-4.9,1.98-7.34,3.1-.47.22-.81.31-1.47.37-1.9.1-3.58,0-5.08.44-4.5,1.31-8.94,2.82-13.37,4.31-.16.06-.08.8-.15,1.33-.04.11-.07.35-.3.38-.55.05-.87.06-1.35-.07-.66-.67-1.43-1.7-1.62-1.62-3.36,1.62-6.64,3.37-9.97,5.22-.03.13-.02.39-.25.44-.54.14-.84.23-1.36.26-.51-.05-.8-.05-1.31-.06-.84.26-1.47.54-2.22.97-.22.26-.32.36-.62.41-.35-.08-.49-.1-.85-.24-2.12-.8-3.68-.62-4.5,1.59-.02.13-.09.4-.34.39-.75,0-1.25.01-1.96-.13-.54-.22-.9-.41-1.2-.34-5.81,1.36-11.62,2.72-17.39,4.21-.55.14-.86,1.15-1.53,1.87-3.33,1.05-6.43,1.99-9.71,2.95-.3.07-.41.13-.8.19-1.75.31-3.23.56-4.68.92-13.5,3.28-26.99,6.58-40.48,9.86-4.68,1.14-9.36,2.24-14.34,3.34-21.18,3.78-42.01,7.83-62.95,11.26-15.13,2.48-30.39,4.31-45.63,6.11-11.12,1.32-22.29,2.23-33.46,3.14-14.98,1.22-29.97,2.39-44.97,3.34-6.09.39-12.23.13-18.66.13-13.61-.16-26.91.02-40.19-.47-15.92-.58-31.82-1.74-47.73-2.61-.87-.05-1.75.22-2.87.36-.57.02-.89.03-1.3-.17-1.15-.29-2.22-.39-3.61-.46-9.25-1.1-18.25-1.88-27.11-3.42-15.9-2.77-31.82-5.53-47.52-9.16-14.08-3.25-27.93-7.45-41.75-11.67-6.69-2.04-13.07-5.07-19.57-7.67-4.55-1.82-9.09-3.68-13.63-5.52,0,0-.04.03-.08-.12-.25-.26-.46-.37-.68-.48,0,0-.02.04-.06-.15-.25-.29-.46-.39-.67-.5-.27-.03-.53-.06-1.09-.23-.51-.24-.73-.35-.95-.47,0,0,0,.04-.09-.18-.5-.31-.93-.4-1.35-.49-7.12-4.21-14.31-8.32-21.33-12.66-4.65-2.88-9.08-6.1-13.99-9.26-.38-.08-.71-.15-.71-.15,0,0,.01.03.02.01-5.53-5.01-11.16-9.9-16.55-15.04-2.85-2.72-5.26-5.86-8.11-9.15-2.27-3.33-4.35-6.29-6.3-9.33-1.52-2.37-2.89-4.84-4.33-7.26,0,0-.05.1-.01-.19-.94-2.31-1.92-4.33-2.92-6.59-.15-.52-.28-.8-.39-1.26-.28-.32-.59-.47-.89-.61,0,0-.08.01-.02-.21-.2-.73-.45-1.25-.7-1.76,0,0-.05.02-.03-.2-.21-.59-.45-.96-.68-1.33,0-.24,0-.49-.03-1.15-.48-1.45-.92-2.48-1.36-3.51,0,0,.05-.22.01-.58-.29-1.74-.55-3.12-.7-4.67-.15-.97-.66-1.79-.65-2.6.07-8.84.22-17.69.49-26.77.15-1.16.15-2.08.16-3M149.15,47.05m128.57,232.28c-1.22-.3-2.44-.6-3.65-.9-.07.4-.14.79-.22,1.19,1.16,0,2.31,0,3.87-.29"/>
    <path class="cls-3" d="m803.32,122.82c-3.86-10.62-10.73-19.36-18.78-27.27-8.44-8.29-17.97-15.32-28.82-21.33-1.88-.79-3.3-1.49-4.72-2.19,0,0-.07.04-.14-.18-10.57-5.26-20.95-10.58-31.64-15.25-8.85-3.87-17.99-7.2-27.16-10.32-6.04-2.05-12.38-3.31-18.68-5.16-4.98-1.7-9.79-3.42-14.75-4.55-5.74-1.32-11.61-2.12-17.63-3.28-1.62-.51-3.03-.9-4.64-1.44-6.62-1.45-13.04-2.74-19.68-4.15-.54-.14-.86-.16-1.37-.36-15.1-2.3-29.99-4.51-44.91-6.49-8.07-1.07-16.21-1.75-24.13-2.82,4.41-.56,8.63-1.2,12.85-1.17,3.7.03,7.39.81,11.08,1.28.44.06.96.15,1.29.4,2.3,1.78,4.78,1.8,7.51,1.04,1.05-.3,2.28-.05,3.43.05,4.16.36,8.31.84,12.47,1.09,1.16.07,2.36-.48,3.54-.75-.35.33-.7.65-1.05.98,1.11.54,2.18,1.43,3.35,1.57,6.91.84,13.84,1.62,20.78,2.13.97.07,2.07-1.47,3.11-2.26l-.55-.47-5.77,1.82c.13-.43.26-.85.39-1.28-1.28-1.44-2.56-2.89-3.56-4.34,9.53,1.87,18.76,3.76,28.01,5.59,1.84.36,3.73.47,5.9.68.7.11,1.08.25,1.48.38,0,0,.04.03.38.08.78.21,1.21.38,1.71.57.06.02.31.06.33.04.03-.02.06.04.12.14.25.07.44.03.87-.02.54.08.85.19,1.24.49,2.09.6,4.08,1,6.28,1.4.58.17.95.34,1.35.63.22.09.42.06.88,0,.78.12,1.29.27,1.88.62,1.75.56,3.41.92,5.3,1.26.69-.02,1.15,0,1.69.14.28.25.44.4.61.7.24.1.44.08.82,0,.3-.11.41-.16.69-.06.28.23.4.31.61.59,4.68,2.15,9.17,4.48,14.63,4.2.3.13.42.2.58.46.26.83.48,1.47.7,2.34.43.7.86,1.17,1.29,1.63.02-.63.04-1.25.23-2.04.97-.26,1.77-.36,2.82-.46,1.03.3,1.8.61,2.66,1.13,1.02.4,1.96.59,3.12.81.47.22.71.39,1.07.74.96.33,1.81.49,2.86.66.3.1.4.18.58.47,3.15,1.27,6.22,2.33,9.54,3.4,3.57,1.28,6.9,2.55,10.36,4.01,6.38,3.09,12.63,5.99,18.88,8.89,5.21,3.05,10.49,5.99,15.61,9.17,16.86,10.46,32.03,22.67,42.75,39.29,10.91,16.92,14.8,34.83,7.52,54.07-1.49,3.94-3.71,7.62-5.65,11.64-.05.23-.03.3-.22.38-.71.98-1.23,1.88-1.75,2.77,0,0,.06.03-.13.09-.35.38-.52.7-.88,1.16-.96,1.22-1.74,2.3-2.52,3.38,0,0,.06.08-.16.13-2.96,2.97-5.7,5.89-8.65,8.92-1.14,1.08-2.07,2.04-3.01,3.01-.21.02-.38.1-.79.43-1.07.85-1.85,1.52-2.63,2.2,0,0,.03.06-.15.08-.29.22-.41.43-.53.63,0,0,.04-.03-.22-.03-3.34,2.19-6.42,4.38-9.65,6.63-.16.06-.42.28-.64.32-1.34.82-2.45,1.6-3.67,2.36-.1-.02-.29.08-.5.09-.39.22-.56.43-.87.67-.31.12-.39.26-.63.51-2.63,1.47-5.05,2.84-7.38,4.33-1.7,1.09-3.23,1.43-4.74-.18,0,.04.02-.04.01-.29-.23-1.39-.44-2.52-.7-3.66-.04,0-.03.08.16.03.36-.26.52-.46.83-.71.28-.2.36-.37.52-.65.3-.27.43-.47.53-.67-.03,0,0,.04.21-.04.62-.46,1.04-.85,1.72-1.22,1.87-.66,3.48-1.33,5.1-2,0,0,.01.02.27.02,3.16-1.54,6.27-2.81,8.94-4.66,7.17-4.99,14.38-10,19.29-17.37-.03-.06.02.06.23,0,.78-.85,1.35-1.63,1.94-2.45.02-.03.03-.11.23-.19,2.8-4.52,5.4-8.96,7.96-13.43-.03-.04,0,.05.22-.07.54-1.2.86-2.27,1.34-3.54,2.78-5.95,3.71-12.04,3.5-18.27-.07-2.01-.87-3.99-1.34-6,0-.02,0-.06.19-.2,0-.68-.18-1.23-.24-1.95.01-.58-.09-.98-.21-1.61-.21-.45-.42-.67-.51-1.13-.45-1.94-1.02-3.65-1.56-5.55-.13-.52-.28-.86-.44-1.19m-180.25-96.53c.07,0,.14,0,0,0m23.35,4.21s-.04-.06,0,0m-20.07-8.71s-.06.03,0,0Z"/>
    <path class="cls-3" d="m170.65,53.63c2.39-1.02,3.91-.34,4.96,1.86-.71.49-1.31.81-1.9,1.13m5.03-8.07-5.03,8.07s-.14-.11-.4-.14c-.38-.05-.51-.08-.69-.32-2.4,1.83-3.4.83-6.77,2.32-1.48.49-2.76.84-4.04,1.19.16-3.08.38-6.17.47-9.25.09-2.96-1.21-4.69-4.58-4.3-.23.03-.46,0-.69,0q-6.75-.02-6.33-6.31c-4.32-.44-7.34,4.66-12.73,2.72,2.4-.97,4.18-1.67,5.91-2.45.1-.05-.12-.76-.12-1.52,5.86-2.23,11.61-4.25,17.46-5.95,9.49-2.76,19.05-5.31,28.89-7.91,1.82-.42,3.33-.88,5.03-1.45.48-.15.77-.18,1.19.01,5.1-.77,10.09-1.69,15.04-2.78,6.35-1.39,12.67-2.85,18.98-4.41,1.91-.47,3.71-1.35,5.56-2.04.22-.07.43-.14,1.14-.11,3.86-.43,7.21-1.09,10.6-1.44,1.83-.19,3.73.15,5.4.28-.41.22-.63.42-.84.62.14.12.28.23.42.35.21-.33.41-.66.86-1.04,2.7-2.35,4.27-.81,5.94,1.71,3.25-2.81,6.26-5.63,10.9-5.74,4.3-.1,8.58-.88,12.87-1.37.02.28.05.55.07.83-5.12.87-10.25,1.67-15.33,2.7-.77.16-1.3,1.39-1.94,2.13,2.87,2.2,1.47,5.3,1.89,8.03.13.83.72,2.2,1.25,2.27,3.8.51,7.65.66,11.47,1.1,1.96.22,4.99.24,5.58,1.33,1.28,2.37,3,1.68,4.66,1.67,2.71-.02,5.43-.37,8.14-.37.49,0,.98,1.04,1.25,1.69-.53.09-.84.09-1.26-.05-.52.09-.94.32-1.34.63.03.08.05.24-.22.19-1.02-.05-1.77-.05-2.65-.2-.74.07-1.35.29-2.2.61-.78.14-1.31.17-2.01.05-1.77-.04-3.39-.08-4.93.25-2.95.62-5.85,1.46-9.01,2.31-.78.16-1.31.22-1.98.12-.74.09-1.34.34-2.2.67-.78.11-1.3.14-2,0-1.7.31-3.23.79-4.73,1.35.03.09.06.27-.17.21-.55-.08-.87-.11-1.31-.27-.5,0-.88.13-1.5.41-6.75,1.44-13.28,2.59-19.74,4.06-5.87,1.33-11.67,2.99-17.7,4.5-.32.07-.44.14-.65.05-6,1.01-11.92,2.18-17.98,3.17-.77.17-1.39.53-2.23,1.02-6.59,1.63-12.96,3.14-19.18,4.41m4.18-2.75,10.1-2.4,0,0,2.06.12s-.07.04,0,0m6.24-1.34s-.06.03,0,0Z"/>
    <path class="cls-3" d="m361.26,22.21c-7.92.98-15.62,1.78-23.33,2.58m-28.04,2.73c-2.14.49-4.08.81-6.03,1.14-.31.01-.62.03-1.4.07-1-.03-1.53-.08-2.06-.13-.49-.56-.98-1.6-1.47-1.6-2.71,0-5.42.35-8.14.37-1.66.01-3.39.7-4.66-1.67-.59-1.09-3.62-1.1-5.58-1.33-3.81-.44-7.67-.59-11.47-1.1-.53-.07-1.12-1.44-1.25-2.27-.42-2.73.98-5.83-1.89-8.03.64-.74,1.17-1.97,1.94-2.13,5.08-1.03,10.22-1.83,15.33-2.7-.02-.28-.05-.55-.07-.83-4.29.48-8.57,1.26-12.87,1.37-4.64.11-7.64,2.93-10.9,5.74-1.67-2.52-3.24-4.06-5.94-1.71-.24.05-.24.04-.24.04-1.87-.1-3.76-.44-5.59-.25-3.39.35-6.74,1-10.44,1.49,1.78-.64,3.89-1.24,6.23-1.95,1.55-.57,2.87-1.04,4.5-1.42,1.19-.08,2.07-.25,2.94-.42.41.06.82.13,1.68.14,1.03-.28,1.61-.51,2.2-.73,0,0-.07,0,.23.11,13.01-1.73,25.71-3.56,38.72-5.35,1.66-.25,3.01-.55,4.57-.8,1.03-.1,1.86-.25,2.86-.22,6.38-.37,12.59-.92,19.09-1.45,1.69-.11,3.08-.24,4.79-.32,3.25-.19,6.18-.42,9.34-.54,1.11.06,1.98,0,3.16-.01,11.67-.32,23.03-.7,34.71-1.01,11.22.02,22.11-.03,33.33,0,12.58.2,24.84.34,37.36.57.98.07,1.7.05,2.67.14,1.75.15,3.25.17,5.01.31.79.08,1.33.05,2.16.09,5.89.21,11.5.35,17.4.58,3.52.25,6.73.4,10.24.65,4.99.31,9.68.53,14.63.84,1.92.17,3.58.25,5.53.43,3.7.03,7.11-.05,10.64.11,1.87.32,3.61.41,5.57.72,4.2.59,8.19,1.01,12.19,1.26.77.05,1.58-.52,2.28-.73-.14.26-.08.38.25.7,1.51.36,2.86.47,4.46.68.77.09,1.29.07,1.81.06,6.63.5,13.29.78,19.89,1.56,7.28.87,14.52,2.15,21.76,3.34,15.36,2.52,30.73,4.96,46.05,7.71,7.7,1.38,15.29,3.35,23.12,5.21-1.68-.06-3.57-.17-5.41-.54-9.25-1.83-18.49-3.72-28.29-5.6-1.31,0-2.05-.01-2.95-.19-1.43-.49-2.71-.8-4.21-1.12-.55-.01-.86-.02-1.37-.2-1.45-.28-2.72-.39-4.25-.5-3.41-.67-6.53-1.53-9.7-1.95-8.3-1.08-16.62-1.96-24.93-2.91-9.23-1.06-18.45-2.13-27.68-3.15-8.1-.89-16.19-1.84-24.31-2.49-2.94-.23-6.22-1.43-8.57,2.13-1.26,1.91-6.31,1.35-7.7-.33,1.89-.17,3.8-.34,5.71-.51-.02-.52-.04-1.05-.06-1.57-5.93-.47-11.86-.94-17.79-1.41-.04.5-.08,1-.11,1.5,1.64,0,3.28.05,4.92-.01,2.3-.08,3.9.17,3.01,3.13-.55,1.84.53,2.92,2.66,2.9,1.5-.01,3.01.14,5.33.26-3.54,2.71-6.2,1.87-9.38,1.35-3.67-.59-5.58-1.42-5.14-4.66-2.25.13-4.31.18-6.35.41-.96.11-2.59.4-2.7.87-.98,4.07-4.31,3.38-6.93,2.94-3.94-.66-7.12.56-10.54,2.38.74.33,1.23.56,1.44.85-1.26.05-2.24.03-3.31-.22-3.39-1.13-6.62-2.35-10.2-1.08-1.23.44-2.74.22-4.12.18-6.09-.19-12.19-.43-18.28-.6-.75-.02-1.68.08-2.23.49-1.68,1.29-1.52,1.14-3.38.34-1.11-.48-2.63-.31-3.92-.13-2.07.29-4.08,1.03-6.15,1.22-2.28.22-4.75-1.67-6.89.84-.39.45-2.04-.15-3.11-.17-3.1-.07-6.53-.88-9.17.16-1.66.65-.28.14-2.28,1.14h-2q-2,1-5,1c.4,1.32-9.42.5-9.23,2.05-1.31.18-2.4.22-3.53.01m-32.54,3.73c-.74.04-1.48.09-2.76.14-6.4.57-12.25,1.12-18.18,1.44"/>
    <path class="cls-3" d="m463.54,15.76c-.49-.22-.99-.45-1.72-.78,3.42-1.82,6.6-3.04,10.54-2.38,2.62.44,5.95,1.13,6.93-2.94.11-.48,1.74-.77,2.7-.87,2.04-.23,4.1-.27,6.35-.41-.44,3.24,1.47,4.06,5.14,4.66,3.18.51,5.84,1.36,9.38-1.35-2.32-.12-3.82-.27-5.33-.26-2.12.02-3.21-1.06-2.66-2.9.89-2.96-.71-3.21-3.01-3.13-1.64.06-3.28.01-4.92.01.04-.5.08-1,.11-1.5,5.93.47,11.86.94,17.79,1.41.02.52.04,1.05.06,1.57-1.91.17-3.83.34-5.71.51,1.38,1.67,6.43,2.24,7.7.33,2.35-3.55,5.63-2.36,8.57-2.13,8.12.65,16.21,1.6,24.31,2.49,9.23,1.01,18.45,2.09,27.68,3.15,8.31.95,16.63,1.83,24.93,2.91,3.17.41,6.39.94,9.84,1.86,1.06,1.18,1.25-.93,2,0,2,0,1.69,1.64,2.31.77.31,0,.63,0,1.3.23,1.66.51,2.95.8,4.25,1.09.74,0,1.48,0,2.5.02,1.56,1.45,2.84,2.9,4.12,4.34-.13.43-.26.85-.39,1.28l5.77-1.82.55.47c-1.04.79-2.14,2.33-3.11,2.26-6.94-.51-13.87-1.28-20.78-2.13-1.17-.14-2.23-1.03-3.35-1.57.35-.33.7-.65,1.05-.98-1.18.27-2.38.82-3.54.75-4.16-.25-8.31-.74-12.47-1.09-1.14-.1-2.38-.34-3.43-.05-2.72.77-5.2.75-7.51-1.04-.33-.26-.84-.35-1.29-.4-3.69-.47-7.38-1.25-11.08-1.28-4.22-.03-8.44.61-13.16,1.2-13.94-.56-27.39-1.36-41.07-2.32-4.05-.18-7.86-.22-11.95-.19-1.42.01-2.57-.03-3.84-.25-.74-.06-1.36.04-2.29.2-7.97.12-15.62.19-23.27.26"/>
    <path class="cls-3" d="m768.76,204.3c.03.17-.16.36-.54.59-.02-.16.15-.37.54-.59Z"/>
  </g>
  <text class="cls-1" transform="translate(55.99 192.66)"><tspan x="0" y="0">WebMark</tspan><tspan class="cls-2" x="579.61" y="0">e</tspan><tspan x="641.02" y="0">r</tspan></text>
</svg>